<svg id="Layer_1" data-name="Layer 1" xmlns="http://www.w3.org/2000/svg" viewBox="0 0 799.29 722.06">
  <defs>
    <style>
      .cls-1{fill:#5d2f90}
    </style>
  </defs>
  <path class="cls-1" d="M382.73 497.74c5.23 7.96 11.4 14.85 18.83 20.55 11.56 8.87 24.59 14.37 38.95 16.69 18.55 3 36.55 1.16 53.42-7.36 17.81-9 31.16-22.52 40.42-40.4 10.73-20.72 14.83-42.69 13.83-65.69-.77-17.67-2.89-35.25-7.03-52.49-5.35-22.27-12.63-43.85-23.77-64.01-20.39-36.91-48.14-66.92-83.58-89.82-20.14-13.02-41.86-22.39-64.86-29.11-13.91-4.06-27.96-6.78-42.39-8.08-10.85-.98-21.7-2.41-32.55-1.73-16.52 1.03-33.02 2.44-49.26 6.17-36.47 8.38-69.22 24.5-98.4 47.68-19.63 15.59-36.44 33.97-50.53 54.8-7.31 10.82-13.98 22.04-19.43 33.84-7.09 15.35-12.76 31.22-16.58 47.84-2.83 12.31-5.34 24.72-6.06 37.15-.81 13.99-.89 28.12.46 42.23 1.54 16.15 4.59 31.9 9.16 47.41 3.41 11.59 7.98 22.7 13.09 33.64 11.23 24.05 26.31 45.52 44.4 64.75 13.66 14.53 29.24 26.99 46.14 37.68 19.63 12.42 40.42 22.18 62.66 29.13 16.99 5.31 34.31 8.66 51.82 11.26 4.68.69 9.51.58 14.29 1.04 14.2 1.37 28.48.77 42.73 1.05 13.07.26 26.03-1.12 39.02-2 12.08-.82 24.28-1.72 36.1-4.17 13.39-2.78 26.86-5.2 40.21-8.31 34.61-8.06 67.9-19.61 100.17-34.32 21.11-9.63 41.34-20.87 60.95-33.25 2.42-1.53 2.43-1.51 5.7-1.24-3.84 5.7-9.16 9.68-13.72 14.32-21.77 22.15-46.06 41.16-72.53 57.36-16.85 10.32-34.43 19.17-52.62 26.98-19.5 8.37-39.57 14.95-60.01 20.24-12.16 3.15-24.57 5.6-37.06 7.6-13.92 2.24-27.91 3.82-41.88 5.53-9.87 1.21-19.95.67-29.94.89-7.98.17-15.98.7-23.94.35-19.18-.84-38.22-2.81-57.07-6.89-15.95-3.46-31.63-7.68-46.76-13.7-24.03-9.57-46.6-21.8-67.52-37.16-31.64-23.22-56.73-52.29-76.87-85.67-8.27-13.71-15.11-28.33-20.72-43.37-7.83-20.99-12.97-42.69-16.77-64.81C-.85 446.6-.21 422.73.69 398.97c.73-19.17 5.08-38.01 10.14-56.67 3.75-13.82 8.54-27.23 14.28-40.19 14.6-32.98 34.59-62.51 59.63-88.59 26.4-27.49 57.07-48.89 91.82-64.35 11.77-5.24 23.88-9.67 36.37-13.22 9.8-2.78 19.61-5.54 29.61-7.16 9.52-1.54 19.09-3.04 28.78-3.71 39.23-2.7 78.49-1.02 117.73-1.08 26.45-.04 52.1-4.09 77.21-11.84 35.8-11.05 68.1-28.52 96.25-53.53 6.85-6.09 13.59-12.25 19.81-18.94 1.94-2.09 3.98-3.28 6.5-2.19 2.62 1.13 1.51 3.88 1.32 5.81-1.98 19.35-5.96 38.26-12.28 56.69-7 20.4-15.63 40.01-27.72 57.95-1.1 1.63-1.26 3.36-.52 4.58 1.11 1.83 3.3 2 5.35 1.38 8.3-2.51 16.66-4.86 24.88-7.61 21.39-7.16 41.99-16.1 61.31-27.82 30.02-18.21 54.72-41.98 75.15-70.51 12.3-17.17 23.45-34.96 33.31-53.6 1.33-2.51 2.89-4.4 6.47-4.38 3.62.02 3.78 2.57 4.91 4.58 9.54 16.99 16.86 34.97 22.68 53.49 4.27 13.6 7.45 27.52 9.63 41.67 1.85 12.03 3.23 24.05 4.14 36.19 1.07 14.35 2.53 28.71 1.59 43.05-.94 14.42-1.87 28.86-3.44 43.27-1.94 17.76-5 35.21-9.27 52.5-4.5 18.2-10.14 36.03-17.02 53.51-5.41 13.72-11.48 27.11-18.13 40.23-14.14 27.9-31.23 53.93-50.94 78.23-12.26 15.12-25.27 29.56-39.37 43-27.61 26.32-57.64 49.34-90.7 68.52-20.89 12.12-42.39 22.89-64.85 31.6-24.11 9.35-48.77 17.16-74.23 22.13-15.84 3.09-31.73 5.62-47.82 7.32-26.02 2.75-52.05 1.79-78.09 1.6-22.19-.16-43.72-4.65-64.27-12.29-37.41-13.91-69.27-36.15-94.66-67.32-11.66-14.32-21.28-29.94-28.48-46.8-10.11-23.68-14.57-48.56-13.74-74.5.43-13.36 1.44-26.62 4.59-39.49 9.65-39.41 29.2-73.26 59-100.95 26.29-24.42 57.08-40.64 92.16-48.01 17.08-3.59 34.56-5.73 52.1-4.23 18.87 1.61 37.37 4.99 55.44 11.22 34.99 12.07 63.82 32.67 87.31 60.95 13.27 15.98 23.6 33.68 31.06 53.2 6.65 17.38 11.09 35.08 12.82 53.63.84 8.94 2.09 17.82 1.01 26.75-1.71 14.25-4.51 28.19-14.55 39.43-6.82 7.64-15.4 11.73-25.51 12.57-12.75 1.07-24.17-2.26-33.54-11.21-6.44-6.16-10.38-13.81-12.6-22.45-2-7.78-1.94-15.68-1.94-23.59 0-25.99.07-51.98-.03-77.97-.06-16.36-6.51-29.82-19.13-40.24-9.42-7.78-20.63-10.98-32.54-11.15-22.82-.32-45.66-.53-68.47 0-45.63 1.06-80.75 21.13-104.8 59.99-14.19 22.93-19.28 47.99-16.18 74.75 4.95 42.75 27.66 73.63 64.39 94.48 21.2 12.04 44.7 16.16 68.7 13.17 31.67-3.94 58.38-18.28 79.47-43.06Z"/>
  <path class="cls-1" d="M321.73 347.05c11.49 0 22.98-.02 34.47 0 5.38.01 7 1.48 7.01 6.66.05 22.48.75 44.99-.17 67.44-1.26 30.88-17.95 55.38-48.18 66.68-17.68 6.61-35.79 6.18-52.8-1.22-17.8-7.74-31.4-21.01-38.94-39.26-12.97-31.38-3.15-64.9 23.19-85.51 12.89-10.08 27.71-14.59 43.93-14.78 10.49-.12 20.98-.02 31.48-.02Z"/>
</svg>
